<mxfile host="app.diagrams.net" agent="Mozilla/5.0 (Windows NT 10.0; Win64; x64) AppleWebKit/537.36 (KHTML, like Gecko) Chrome/134.0.0.0 Safari/537.36 Edg/134.0.0.0" version="26.1.3">
  <diagram name="Página-1" id="wm8FJpvr3r1HYrCEnL1W">
    <mxGraphModel dx="1737" dy="898" grid="1" gridSize="10" guides="1" tooltips="1" connect="1" arrows="1" fold="1" page="1" pageScale="1" pageWidth="827" pageHeight="1169" math="0" shadow="0">
      <root>
        <mxCell id="0" />
        <mxCell id="1" parent="0" />
        <mxCell id="yu1NF-nR_m6M8hYEDmla-1" value="Gerente&lt;div&gt;&lt;br&gt;&lt;/div&gt;" style="shape=umlActor;verticalLabelPosition=bottom;verticalAlign=top;html=1;" vertex="1" parent="1">
          <mxGeometry x="80" y="90" width="40" height="100" as="geometry" />
        </mxCell>
        <mxCell id="yu1NF-nR_m6M8hYEDmla-2" value="" style="html=1;whiteSpace=wrap;" vertex="1" parent="1">
          <mxGeometry x="150" y="40" width="440" height="710" as="geometry" />
        </mxCell>
        <mxCell id="yu1NF-nR_m6M8hYEDmla-4" value="&lt;b&gt;Manutenção de Equipamentos&lt;/b&gt;" style="text;html=1;align=center;verticalAlign=middle;whiteSpace=wrap;rounded=0;" vertex="1" parent="1">
          <mxGeometry x="250" y="10" width="240" height="30" as="geometry" />
        </mxCell>
        <mxCell id="yu1NF-nR_m6M8hYEDmla-9" value="Log in" style="ellipse;whiteSpace=wrap;html=1;" vertex="1" parent="1">
          <mxGeometry x="283.75" y="70" width="42.5" height="30" as="geometry" />
        </mxCell>
        <mxCell id="yu1NF-nR_m6M8hYEDmla-10" value="Registra Equipamentos" style="ellipse;whiteSpace=wrap;html=1;" vertex="1" parent="1">
          <mxGeometry x="380" y="180" width="110" height="50" as="geometry" />
        </mxCell>
        <mxCell id="yu1NF-nR_m6M8hYEDmla-11" value="&lt;div&gt;Técnico&lt;/div&gt;&lt;div&gt;&lt;br&gt;&lt;/div&gt;" style="shape=umlActor;verticalLabelPosition=bottom;verticalAlign=top;html=1;" vertex="1" parent="1">
          <mxGeometry x="70" y="420" width="40" height="100" as="geometry" />
        </mxCell>
        <mxCell id="yu1NF-nR_m6M8hYEDmla-14" value="" style="endArrow=none;html=1;rounded=0;exitX=1;exitY=0.3333333333333333;exitDx=0;exitDy=0;exitPerimeter=0;entryX=0;entryY=0.5;entryDx=0;entryDy=0;" edge="1" parent="1" source="yu1NF-nR_m6M8hYEDmla-1" target="yu1NF-nR_m6M8hYEDmla-9">
          <mxGeometry width="50" height="50" relative="1" as="geometry">
            <mxPoint x="390" y="250" as="sourcePoint" />
            <mxPoint x="440" y="200" as="targetPoint" />
          </mxGeometry>
        </mxCell>
        <mxCell id="yu1NF-nR_m6M8hYEDmla-15" value="" style="endArrow=none;html=1;rounded=0;exitX=1;exitY=0.3333333333333333;exitDx=0;exitDy=0;exitPerimeter=0;entryX=0;entryY=0;entryDx=0;entryDy=0;" edge="1" parent="1" source="yu1NF-nR_m6M8hYEDmla-1" target="yu1NF-nR_m6M8hYEDmla-10">
          <mxGeometry width="50" height="50" relative="1" as="geometry">
            <mxPoint x="130" y="120" as="sourcePoint" />
            <mxPoint x="205" y="100" as="targetPoint" />
          </mxGeometry>
        </mxCell>
        <mxCell id="yu1NF-nR_m6M8hYEDmla-16" value="Registra Estações Disponíveis" style="ellipse;whiteSpace=wrap;html=1;" vertex="1" parent="1">
          <mxGeometry x="380" y="115" width="110" height="50" as="geometry" />
        </mxCell>
        <mxCell id="yu1NF-nR_m6M8hYEDmla-17" value="" style="endArrow=none;html=1;rounded=0;exitX=1;exitY=0.3333333333333333;exitDx=0;exitDy=0;exitPerimeter=0;entryX=0;entryY=0.5;entryDx=0;entryDy=0;" edge="1" parent="1" source="yu1NF-nR_m6M8hYEDmla-1" target="yu1NF-nR_m6M8hYEDmla-16">
          <mxGeometry width="50" height="50" relative="1" as="geometry">
            <mxPoint x="130" y="133" as="sourcePoint" />
            <mxPoint x="210" y="285" as="targetPoint" />
          </mxGeometry>
        </mxCell>
        <mxCell id="yu1NF-nR_m6M8hYEDmla-18" value="Registra Etapas de Manuntenção do Equipamento" style="ellipse;whiteSpace=wrap;html=1;" vertex="1" parent="1">
          <mxGeometry x="360" y="250" width="150" height="60" as="geometry" />
        </mxCell>
        <mxCell id="yu1NF-nR_m6M8hYEDmla-19" value="" style="endArrow=none;html=1;rounded=0;exitX=1;exitY=0.3333333333333333;exitDx=0;exitDy=0;exitPerimeter=0;entryX=0;entryY=0;entryDx=0;entryDy=0;" edge="1" parent="1" target="yu1NF-nR_m6M8hYEDmla-18" source="yu1NF-nR_m6M8hYEDmla-1">
          <mxGeometry width="50" height="50" relative="1" as="geometry">
            <mxPoint x="120" y="190" as="sourcePoint" />
            <mxPoint x="205" y="167" as="targetPoint" />
          </mxGeometry>
        </mxCell>
        <mxCell id="yu1NF-nR_m6M8hYEDmla-20" value="Registra Prioridade dos Equipamentos" style="ellipse;whiteSpace=wrap;html=1;" vertex="1" parent="1">
          <mxGeometry x="350" y="320" width="170" height="40" as="geometry" />
        </mxCell>
        <mxCell id="yu1NF-nR_m6M8hYEDmla-21" value="" style="endArrow=none;html=1;rounded=0;exitX=1;exitY=0.3333333333333333;exitDx=0;exitDy=0;exitPerimeter=0;entryX=0;entryY=0;entryDx=0;entryDy=0;" edge="1" parent="1" target="yu1NF-nR_m6M8hYEDmla-20" source="yu1NF-nR_m6M8hYEDmla-1">
          <mxGeometry width="50" height="50" relative="1" as="geometry">
            <mxPoint x="140" y="280" as="sourcePoint" />
            <mxPoint x="225" y="257" as="targetPoint" />
          </mxGeometry>
        </mxCell>
        <mxCell id="yu1NF-nR_m6M8hYEDmla-24" value="" style="endArrow=classic;html=1;rounded=0;entryX=0;entryY=1;entryDx=0;entryDy=0;" edge="1" parent="1" target="yu1NF-nR_m6M8hYEDmla-9">
          <mxGeometry width="50" height="50" relative="1" as="geometry">
            <mxPoint x="110" y="450" as="sourcePoint" />
            <mxPoint x="160" y="400" as="targetPoint" />
          </mxGeometry>
        </mxCell>
        <mxCell id="yu1NF-nR_m6M8hYEDmla-25" value="&amp;lt;&amp;lt;Include&amp;gt;&amp;gt;" style="edgeLabel;html=1;align=center;verticalAlign=middle;resizable=0;points=[];rotation=-60;" vertex="1" connectable="0" parent="yu1NF-nR_m6M8hYEDmla-24">
          <mxGeometry x="0.088" y="-4" relative="1" as="geometry">
            <mxPoint x="-31" y="71" as="offset" />
          </mxGeometry>
        </mxCell>
        <mxCell id="yu1NF-nR_m6M8hYEDmla-26" value="Solicita Agendamento de Manutenção" style="ellipse;whiteSpace=wrap;html=1;" vertex="1" parent="1">
          <mxGeometry x="350" y="370" width="170" height="60" as="geometry" />
        </mxCell>
        <mxCell id="yu1NF-nR_m6M8hYEDmla-27" value="" style="endArrow=none;html=1;rounded=0;entryX=0;entryY=0;entryDx=0;entryDy=0;" edge="1" parent="1" target="yu1NF-nR_m6M8hYEDmla-26">
          <mxGeometry width="50" height="50" relative="1" as="geometry">
            <mxPoint x="120" y="120" as="sourcePoint" />
            <mxPoint x="215" y="364" as="targetPoint" />
          </mxGeometry>
        </mxCell>
        <mxCell id="yu1NF-nR_m6M8hYEDmla-28" value="Remove Equipamento" style="ellipse;whiteSpace=wrap;html=1;" vertex="1" parent="1">
          <mxGeometry x="369" y="460" width="90" height="60" as="geometry" />
        </mxCell>
        <mxCell id="yu1NF-nR_m6M8hYEDmla-29" value="" style="endArrow=none;html=1;rounded=0;exitX=1;exitY=0.3333333333333333;exitDx=0;exitDy=0;exitPerimeter=0;entryX=0;entryY=0;entryDx=0;entryDy=0;" edge="1" parent="1" target="yu1NF-nR_m6M8hYEDmla-28" source="yu1NF-nR_m6M8hYEDmla-1">
          <mxGeometry width="50" height="50" relative="1" as="geometry">
            <mxPoint x="110" y="280" as="sourcePoint" />
            <mxPoint x="215" y="414" as="targetPoint" />
          </mxGeometry>
        </mxCell>
        <mxCell id="yu1NF-nR_m6M8hYEDmla-30" value="Remove Estações de Manuntenção" style="ellipse;whiteSpace=wrap;html=1;" vertex="1" parent="1">
          <mxGeometry x="369" y="530" width="100" height="73" as="geometry" />
        </mxCell>
        <mxCell id="yu1NF-nR_m6M8hYEDmla-31" value="" style="endArrow=none;html=1;rounded=0;exitX=0.83;exitY=0.296;exitDx=0;exitDy=0;exitPerimeter=0;entryX=0;entryY=0;entryDx=0;entryDy=0;" edge="1" parent="1" target="yu1NF-nR_m6M8hYEDmla-30" source="yu1NF-nR_m6M8hYEDmla-1">
          <mxGeometry width="50" height="50" relative="1" as="geometry">
            <mxPoint x="110" y="350" as="sourcePoint" />
            <mxPoint x="215" y="484" as="targetPoint" />
          </mxGeometry>
        </mxCell>
        <mxCell id="yu1NF-nR_m6M8hYEDmla-32" value="Marca etapa concluída" style="ellipse;whiteSpace=wrap;html=1;" vertex="1" parent="1">
          <mxGeometry x="195" y="460" width="90" height="60" as="geometry" />
        </mxCell>
        <mxCell id="yu1NF-nR_m6M8hYEDmla-33" value="" style="endArrow=none;html=1;rounded=0;exitX=1;exitY=0.3333333333333333;exitDx=0;exitDy=0;exitPerimeter=0;entryX=0;entryY=0;entryDx=0;entryDy=0;" edge="1" parent="1" target="yu1NF-nR_m6M8hYEDmla-32" source="yu1NF-nR_m6M8hYEDmla-11">
          <mxGeometry width="50" height="50" relative="1" as="geometry">
            <mxPoint x="20" y="320.00333333333333" as="sourcePoint" />
            <mxPoint x="85" y="427" as="targetPoint" />
          </mxGeometry>
        </mxCell>
        <mxCell id="yu1NF-nR_m6M8hYEDmla-34" value="Relata Problemas" style="ellipse;whiteSpace=wrap;html=1;" vertex="1" parent="1">
          <mxGeometry x="180" y="630" width="90" height="60" as="geometry" />
        </mxCell>
        <mxCell id="yu1NF-nR_m6M8hYEDmla-35" value="" style="endArrow=none;html=1;rounded=0;exitX=1;exitY=0.3333333333333333;exitDx=0;exitDy=0;exitPerimeter=0;entryX=0;entryY=0;entryDx=0;entryDy=0;" edge="1" parent="1" target="yu1NF-nR_m6M8hYEDmla-34" source="yu1NF-nR_m6M8hYEDmla-11">
          <mxGeometry width="50" height="50" relative="1" as="geometry">
            <mxPoint x="120" y="538" as="sourcePoint" />
            <mxPoint x="95" y="512" as="targetPoint" />
          </mxGeometry>
        </mxCell>
        <mxCell id="yu1NF-nR_m6M8hYEDmla-36" value="Gera Relatórios" style="ellipse;whiteSpace=wrap;html=1;" vertex="1" parent="1">
          <mxGeometry x="390" y="650" width="90" height="60" as="geometry" />
        </mxCell>
        <mxCell id="yu1NF-nR_m6M8hYEDmla-37" value="" style="endArrow=none;html=1;rounded=0;exitX=1;exitY=0.3333333333333333;exitDx=0;exitDy=0;exitPerimeter=0;entryX=0;entryY=0;entryDx=0;entryDy=0;" edge="1" parent="1" target="yu1NF-nR_m6M8hYEDmla-36" source="yu1NF-nR_m6M8hYEDmla-1">
          <mxGeometry width="50" height="50" relative="1" as="geometry">
            <mxPoint x="227.5" y="540" as="sourcePoint" />
            <mxPoint x="212.5" y="599" as="targetPoint" />
          </mxGeometry>
        </mxCell>
        <mxCell id="yu1NF-nR_m6M8hYEDmla-38" value="" style="endArrow=classic;html=1;rounded=0;entryX=0;entryY=0.5;entryDx=0;entryDy=0;exitX=1;exitY=0.3333333333333333;exitDx=0;exitDy=0;exitPerimeter=0;" edge="1" parent="1" source="yu1NF-nR_m6M8hYEDmla-11" target="yu1NF-nR_m6M8hYEDmla-36">
          <mxGeometry width="50" height="50" relative="1" as="geometry">
            <mxPoint x="120" y="460" as="sourcePoint" />
            <mxPoint x="300" y="106" as="targetPoint" />
          </mxGeometry>
        </mxCell>
        <mxCell id="yu1NF-nR_m6M8hYEDmla-39" value="&amp;lt;&amp;lt;Include&amp;gt;&amp;gt;" style="edgeLabel;html=1;align=center;verticalAlign=middle;resizable=0;points=[];rotation=30;" vertex="1" connectable="0" parent="yu1NF-nR_m6M8hYEDmla-38">
          <mxGeometry x="0.088" y="-4" relative="1" as="geometry">
            <mxPoint x="52" y="55" as="offset" />
          </mxGeometry>
        </mxCell>
      </root>
    </mxGraphModel>
  </diagram>
</mxfile>
